<svg width="180" height="53" viewBox="0 0 180 53" fill="none" xmlns="http://www.w3.org/2000/svg">
<rect width="180" height="53" fill="url(#paint0_linear_2_66)"/>
<path d="M87.7616 42.9728C88.0232 43.0294 88.2242 43.1087 88.518 43.1847C92.178 43.4472 95.2745 42.4901 97.435 41.3654C98.5424 40.7873 99.4793 40.1594 100.434 39.349C100.916 38.9358 101.399 38.4849 101.994 37.8242C102.289 37.4927 102.622 37.1017 103.039 36.537C103.464 35.928 103.949 35.3462 104.836 33.4988C105.085 32.9158 105.762 31.4988 106.17 29.1211C106.598 26.762 106.375 23.911 105.884 22.1117C105.077 19.1428 103.904 17.4891 103.003 16.371C102.209 15.4435 101.381 16.3371 101.087 16.2179C100.321 15.9837 101.086 14.7918 100.704 14.5592C98.9479 13.5741 98.0193 13.2826 96.9959 13.201C95.9772 13.1734 94.7173 16.6464 94.1264 17.3433C93.0609 18.7683 95.3597 14.5838 95.6396 13.5348C94.9551 13.5385 94.2162 13.8158 93.4561 14.1458C93.4881 14.6165 93.4991 15.0748 93.4969 15.5072C93.2314 15.5245 92.7489 16.1542 92.7248 17.4435C92.5578 17.7513 92.387 18.1195 92.2347 18.4249C92.6913 16.7487 92.3232 16.5128 92.4849 15.498C92.6569 14.4818 92.8942 14.778 92.9105 14.6905C93.1405 13.7239 92.1829 14.3496 91.6478 14.7858C89.6518 14.528 86.0682 15.4978 85.2666 16.0324C82.7752 17.2925 81.8093 18.8255 81.5248 19.5111C81.229 20.2591 81.4415 20.5139 81.632 20.7273C81.8322 20.938 82.0277 21.1111 81.9408 21.5859C81.8679 22.0501 81.4854 22.8684 81.0858 24.0105C80.489 25.8851 80.3024 26.3511 79.9133 26.8184C79.5604 27.2417 79.1879 27.462 79.0074 27.7178C78.6453 28.1486 79.0936 29.1169 82.2839 29.5039C82.1884 29.614 82.1081 29.7259 82.0389 29.8311C81.4734 30.3458 81.4545 30.6804 81.7332 31.1115C81.8844 31.34 82.089 31.5864 82.5406 32.1072C82.7798 32.376 83.0628 32.7104 83.6384 33.2496C84.2395 33.758 85.05 34.6353 87.2777 35.414C88.5543 35.7981 88.7736 36.0191 88.671 36.2996C88.5905 36.5624 88.2596 36.8076 88.9862 36.9169C91.4499 37.2587 93.5923 36.5793 94.7781 36.003C95.9866 35.4184 96.6297 34.8839 97.0652 34.5186C97.9311 33.7538 98.1531 33.392 98.3238 33.1234C98.5924 32.6386 98.4091 32.568 98.1034 32.6345C97.7945 32.6982 97.301 32.9587 96.6871 33.3009C96.0978 33.633 95.3304 34.0123 95.33 33.9744C95.3932 33.4775 95.9027 32.7111 96.1942 32.0755C96.5047 31.4332 96.6839 30.9384 96.8159 30.5855C97.0107 30.0499 97.1172 29.817 97.2209 29.6399C97.3185 29.4695 97.3893 29.3756 97.3562 29.3066C96.5916 28.0291 95.7272 27.9381 95.0069 26.7061C94.686 26.2038 94.4248 25.3323 93.26 24.2666C92.6861 23.7599 91.879 23.3958 91.2361 23.3107C90.5847 23.2152 90.1114 23.3095 89.7751 23.4154L87.9774 24.102C87.9806 24.2554 87.9801 24.388 87.9706 24.5023C87.9708 24.6374 87.1527 24.4056 87.3289 24.7112C87.5169 24.9867 88.6497 25.7236 89.17 26.1097C86.4861 24.2793 85.984 24.4033 87.8105 25.5391C85.6408 24.5903 87.3678 25.392 86.8546 25.4047C86.6671 25.4442 86.0565 25.2999 85.5046 25.6566C85.1013 25.449 86.636 24.1 86.3512 23.7469C86.8173 22.7256 88.2919 21.6199 89.3619 21.3613C90.4415 21.0546 91.0562 21.1187 91.4368 21.1771C92.1769 21.3296 92.1812 21.6488 91.9837 22.31C91.9718 22.1992 91.5818 22.2684 91.0835 22.5105C90.8179 22.6346 90.5086 22.7703 89.9527 23.0308C89.4474 23.2585 88.3448 23.8854 87.9004 24.8664C88.0773 25.0857 87.1237 25.924 87.3743 26.0529C87.4337 26.0235 87.4927 25.9934 87.5472 25.9747C87.8388 25.7267 88.1034 25.3916 90.1241 26.7304C91.208 27.3771 90.2475 26.7212 90.4454 26.842C91.6798 27.4034 93.1106 28.2713 92.5288 28.1113C92.3073 27.9481 92.081 27.7842 91.8518 27.6329C90.3145 26.9116 95.8981 30.2484 91.0116 27.3369C90.4245 26.9601 89.8184 26.5579 89.2085 26.1366C89.4602 26.3117 90.0922 26.7337 90.201 26.8159C90.3018 26.9112 89.1375 26.0586 90.1132 26.7845C91.5204 27.8564 91.0234 27.3542 91.1074 27.4128C91.0985 27.4068 91.0897 27.4008 91.0809 27.3948C91.9102 27.8435 91.8944 28.0597 92.0169 28.173C92.8534 28.8937 93.5793 29.3439 94.172 30.0622C94.502 30.4831 94.0528 30.531 94.0913 30.7283C94.1262 30.9384 94.8673 31.3763 94.9333 31.5662C94.9912 31.7643 94.4606 31.3951 94.526 31.6192C94.5545 31.7182 95.1899 32.4014 95.1923 32.4436C95.2194 32.9029 94.0644 31.3331 93.9802 31.5617C93.9614 31.6884 94.5808 33.4854 95.2399 33.6627C95.2171 33.7808 95.1866 33.8918 95.1503 33.9998C94.37 33.3723 91.3885 36.5086 91.0273 35.5747C90.3824 35.7281 89.5602 35.8356 88.4727 35.7171C89.4904 36.1655 90.3887 36.3271 91.1253 36.5256C91.527 37.5644 94.8433 34.0759 95.7113 34.7739C95.7406 34.7891 95.7707 34.8052 95.8015 34.8224C95.7807 34.8195 95.7614 34.8182 95.7435 34.8184C94.8705 34.1163 91.535 37.6252 91.1309 36.5803C88.9951 36.5008 85.914 37.5295 83.0262 35.3C80.0582 32.7181 81.3834 29.7479 80.2255 28.6299C79.6203 27.9347 79.3207 27.8807 79.1457 28.1835C78.9873 28.4961 78.9491 29.2271 79.3228 30.5236C79.6709 31.7776 80.7133 33.8619 82.4476 35.4129C84.1602 36.9843 85.9181 37.6127 86.4228 37.8822C86.8381 38.0852 86.1152 38.3221 85.0491 38.2809C83.9905 38.2602 82.6275 37.8235 82.329 37.6139C79.3858 35.7079 78.8807 32.15 78.4964 31.0358C77.9121 29.4713 77.6461 28.5786 77.3315 27.8248C76.7686 26.4916 76.1719 25.8353 76.0684 25.0944C75.9721 24.367 75.8992 23.7948 75.8951 23.1116C75.8962 22.7652 75.9112 22.4014 75.9974 21.8998C76.1205 21.3515 76.1273 20.8988 76.9203 19.2842C77.5478 18.3488 77.6463 17.1087 81.4424 14.1688C83.2512 12.7883 87.7763 10.7886 92.4667 11.5763C97.0956 12.3357 99.4714 14.4325 100.777 15.5922C103.282 18.0744 103.54 19.0392 104.049 19.826C104.462 20.5773 104.662 21.0126 104.83 21.3586C105.588 23.5289 106.359 24.3905 105.939 29.3302C105.676 31.6049 104.177 36.8931 98.9991 40.3357C93.8789 43.576 90.0422 43.0938 88.1337 42.9637C88.0837 42.9668 88.0344 42.9694 87.9859 42.9715C87.3114 42.9946 87.2868 41.3615 87.0612 41.3625C86.5273 41.3579 86.1425 42.6907 85.6726 42.6438C84.962 42.574 84.547 41.1472 84.2317 40.7381C84.0086 40.4576 83.2113 41.5747 83.1109 41.5661C81.7891 41.5151 80.3869 40.6948 79.18 39.7843C78.6002 39.3491 79.2874 37.9351 79.1491 37.8737C78.4978 37.5364 77.7504 38.6057 77.3413 38.0132C77.111 37.6768 77.9641 36.7691 77.9662 36.7011C77.9626 36.09 76.6667 37.063 76.3366 36.7444C75.1766 35.5701 74.0743 33.5248 73.5027 29.9949C73.1428 28.2786 73.0438 25.6444 73.52 23.5007C73.9775 21.3386 74.6613 20.0719 74.9388 19.5387C75.1879 19.0222 75.4444 18.5699 75.6264 18.2703C76.0246 17.6291 76.5743 18.1184 76.7426 17.7949C77.3461 16.6394 76.1231 16.3995 76.7203 15.538C77.8414 13.9858 78.8223 13.4483 79.9254 12.8282C80.0345 12.7693 80.6036 13.4941 80.819 13.3508C81.0373 13.2072 80.7416 12.3571 81.1539 12.1704C82.2447 11.6833 83.7337 12.14 85.0308 11.8005C85.2423 11.7442 85.2247 10.5936 85.6051 10.5123C86.7915 10.2357 88.7963 11.0361 89.8757 11.1269C90.041 11.1362 90.2069 11.1467 90.3735 11.1586C90.8001 11.2312 91.1905 10.6882 91.5972 10.7272C91.6956 10.7392 91.657 11.7707 91.7013 11.8011C91.8075 11.8682 91.8472 10.8934 91.9698 10.9058C93.0574 11.0873 93.8421 11.4501 96.8626 12.6672C97.9724 13.2461 101.132 13.3166 103.908 17.8139C104.558 18.9749 104.355 19.9352 104.252 20.7371C104.091 20.9539 103.973 21.1388 104.02 21.2746C104.23 21.8799 105.87 21.3697 106.191 21.8259C106.439 22.1801 104.876 23.0009 105.054 23.3012C105.232 23.6105 106.904 23.4384 107.184 23.877C107.413 24.241 106.74 24.9093 106.903 25.3816C107.189 26.2146 107.429 27.2191 107.475 28.5791C107.578 29.6123 106.702 33.7259 105.318 35.8782C103.972 38.1953 102.716 39.4055 101.811 40.2577C100.032 42.1341 97.3195 43.7759 93.1086 43.7674C91.7329 43.747 90.135 43.8209 88.4789 43.378C88.0733 43.1234 87.6479 42.7075 87.2992 41.9266C87.2249 41.7555 87.6559 40.1958 87.2897 40.4722C87.0932 40.6209 86.5654 41.9362 86.0585 41.8827C84.526 41.7083 82.6036 40.3392 80.6801 38.0132C80.9611 37.9589 77.4675 34.6133 76.7255 31.1137C75.88 27.7222 76.3427 25.9428 76.3453 24.7565C76.3535 24.5875 76.3562 24.4371 76.3571 24.2829C75.207 23.3917 65.0497 20.1168 81.2892 23.0113C82.2016 22.8599 85.9348 24.4541 87.0409 24.7664C86.244 24.5678 85.2996 24.3258 84.3991 24.1055C89.2529 25.4965 87.991 25.1267 87.5338 25.0817C87.2507 25.0515 89.3464 25.5728 89.9342 25.7475C90.6927 25.9769 93.0875 26.6791 89.8505 25.8408C90.4108 25.9897 90.9479 26.1313 91.4967 26.2757C91.9703 26.4684 92.7676 26.7326 93.6863 27.0164C93.847 27.0657 94.8678 27.3081 95.0283 27.3567C95.4668 27.4887 94.7906 27.3532 94.8872 27.4067C94.9391 27.4358 96.1203 27.7093 96.0403 27.7113C95.9598 27.713 94.3635 27.3515 96.0923 27.7714C98.0992 28.207 96.6291 27.9527 96.7463 28.0091C96.7611 28.0177 98.5566 28.4428 98.3461 28.4129C98.1394 28.3835 96.9815 28.1623 97.6302 28.3281C97.935 28.4059 99.3391 28.711 99.4166 28.7393C99.4709 28.7591 98.2189 28.5067 98.1643 28.5076C98.1099 28.5085 99.1314 28.7457 99.1475 28.7532C99.2122 28.7829 98.3365 28.5839 98.2899 28.5858C98.1745 28.5924 97.9772 28.5861 97.9172 28.6082C97.9341 28.2903 98.0469 27.9169 98.3471 27.4035C98.427 27.2611 99.4742 27.5151 99.51 27.5011C100.838 26.3097 99.4376 26.9092 98.4898 26.6232C98.0222 26.4685 97.9077 25.8308 97.9159 24.8636C97.9487 23.9186 97.9762 22.649 98.7741 22.2026C96.6718 23.1216 97.7468 21.4819 97.6166 21.1958C97.2348 20.2373 95.8076 21.6603 95.8101 20.7499C95.7963 20.4131 97.1179 19.8429 96.8882 19.6615C96.2864 19.187 94.5286 20.5676 94.3725 20.7179C94.3548 20.7355 94.4791 20.5823 94.6171 20.4188C94.7405 20.2057 94.8673 19.9678 94.7928 19.9328C94.6378 19.8503 93.515 20.5174 94.8683 18.978C93.661 20.1326 94.1176 19.3647 93.7624 19.2171C93.6687 19.1819 92.8645 20.5128 92.9486 20.0184C92.9744 19.8495 93.62 18.4985 93.5386 18.447C93.3484 18.3238 92.5855 19.6846 92.4022 19.681C92.057 19.676 92.0465 18.5408 91.6811 18.8542C91.5868 18.9419 91.2755 20.4144 91.1982 20.4278C91.1926 20.4265 91.3482 19.1302 91.2652 19.2399C91.2101 19.3042 90.9204 20.1846 90.8938 20.2556C90.8398 20.3671 91.0197 18.9226 90.9568 19.2016C90.7817 20.007 90.6047 22.1436 90.8538 19.2219C90.7106 20.3739 90.6644 20.6192 90.5779 21.3911C90.5228 21.6977 90.4688 22.0895 90.411 22.658C90.5085 20.4665 90.2594 22.5599 90.1604 21.8243C90.0748 21.0857 89.7124 16.8486 89.8542 21.4158C89.7757 20.8604 89.3455 19.945 89.2682 19.8868C89.0656 19.7151 89.3276 20.9553 89.1907 20.8026C89.1667 20.7776 89.0576 19.919 88.9285 20.0273C88.8332 20.0934 88.2369 20.2939 88.2505 20.4209C88.3068 21.8193 88.6878 21.1823 88.9735 22.0813C88.926 21.84 88.8801 21.5976 88.838 21.3581C88.9048 20.9242 89.2239 22.8536 89.2964 23.3022C89.3667 23.7507 89.0675 22.9306 89.2089 23.5571C89.2839 23.8704 89.9527 26.1134 89.8778 25.841C90.0676 26.5365 90.2688 27.2706 90.4492 27.9237C90.6454 28.6424 90.9202 28.7935 90.4649 27.5848C90.4333 27.5486 90.427 27.5978 90.3941 27.5525C89.8296 25.3803 87.1486 18.1971 87.8971 21.1905C88.6063 23.2936 89.5101 24.8172 88.5296 23.2228C88.5247 23.1255 88.4695 22.9206 88.4692 22.8181C87.7952 21.2781 88.4776 22.9974 88.2277 22.5243C88.0917 22.2991 87.7222 21.1584 87.4382 20.8536C88.38 23.0676 87.2742 20.9157 87.0785 20.9893C87.3293 21.3405 87.5705 21.6952 87.8037 22.0572C88.4752 23.6738 88.9876 24.0538 89.2847 25.0006C89.3354 25.061 89.3392 25.0356 89.4066 25.134C89.81 25.9184 90.9885 28.2238 91.2474 28.7058C91.9499 29.9592 91.6228 29.152 91.7288 29.2357C91.7782 29.2683 92.1185 29.8791 92.1222 29.8817C92.1996 29.9259 91.6663 29.0508 91.6567 28.9803C91.6385 28.8966 92.2773 29.6698 92.2366 29.5599C92.1122 29.2941 90.9227 27.6573 90.8501 27.524C90.317 26.7024 90.7892 27.3632 90.0568 26.312C90.4865 27.0836 89.9758 26.07 88.7859 24.3131C87.7521 22.5202 86.3314 20.0386 85.9312 20.028C85.6293 20.0034 86.387 20.8725 87.0243 21.9601C87.097 22.1002 87.3065 22.692 86.7572 21.9943C88.0019 23.62 89.1057 25.0584 90.4037 26.7249C90.5937 26.9703 90.4993 26.8882 91.5297 28.2384C92.0465 28.9174 93.2117 30.3638 93.8711 31.2268C93.4291 30.614 92.9231 29.9312 92.4474 29.303C92.4157 29.1517 92.6065 29.3422 92.9975 29.7548C93.25 29.9826 93.5749 30.2869 93.9938 30.6154C93.572 30.2039 91.8472 28.4342 92.483 28.8699C92.5234 28.8926 93.1289 29.5445 93.5607 29.7318C94.4263 30.0989 94.8641 29.9916 96.4759 32.116C96.4014 31.075 96.9699 30.8507 97.6768 30.4122C98.3579 30.0356 99.2092 29.1508 98.9128 28.1431C95.5159 27.98 96.4516 28.5614 96.141 30.3962C95.432 30.028 94.7563 29.6214 94.0621 29.2131C95.1873 29.1399 95.7017 28.8533 95.7192 28.7455C95.7374 28.6176 95.3596 28.3592 94.6538 27.8013C94.4844 27.6743 94.5225 27.4242 94.3177 27.3311C94.1054 27.2373 93.6557 27.1738 92.5053 27.118C92.3099 27.1076 92.1939 27.1137 92.0834 27.1192C91.8944 27.1344 91.7178 27.1635 91.198 27.0723C91.1217 27.0587 90.9894 27.0251 90.8966 27.0067C90.7991 26.9852 90.747 26.9721 90.8578 26.9771C93.5214 27.016 95.3811 27.3761 94.4106 26.7849C94.3817 26.7703 93.4075 26.7945 93.2712 26.7786C93.0168 26.7504 94.1443 26.6948 93.8817 26.6657C93.6178 26.6299 92.1022 26.7199 93.4955 26.5453C96.0242 26.1404 97.5298 26.4276 96.1801 26.7096C99.5577 26.7304 99.4276 24.8734 99.1052 24.9167C97.808 24.7987 98.6425 25.2745 97.7312 25.4666C97.3485 25.5545 92.4483 26.3678 95.6463 25.9519C96.5975 25.8501 97.8112 25.4689 98.3492 25.497C98.8888 25.5382 97.4347 25.7091 97.3352 25.7329C96.9933 25.8098 97.5463 25.8496 97.3428 25.8944C94.2426 26.4796 89.5216 27.0406 96.4602 25.9205C94.8763 26.0638 92.3928 26.5801 91.3151 26.6565C90.0146 26.8144 92.2427 26.4091 92.3387 26.3663C93.5014 26.0188 90.2827 26.7851 91.2972 26.4763C91.8532 26.2705 93.4756 26.1284 93.2157 25.9655C92.991 25.8278 91.9066 26.2351 89.374 26.8931C88.7811 27.0462 88.0629 27.2668 88.3161 27.171C88.9757 26.9987 89.8456 26.7742 90.4557 26.6221C89.9797 26.7702 86.6579 27.5505 86.5366 27.5554C85.9693 27.618 87.7068 27.2742 85.6538 27.6444C87.8975 27.2287 86.5412 27.4575 87.0124 27.356C88.7523 26.9973 89.418 26.9803 87.1503 27.2455C88.2114 27.1095 89.25 26.9554 90.3012 26.7807C90.3385 26.7814 90.3768 26.7826 90.4141 26.7844C88.0846 27.1382 88.3702 26.9948 86.0263 27.3664C85.3422 27.3266 85.8466 27.1742 87.6747 27.0437C88.0235 27.0169 88.1626 26.9998 88.1957 26.9876C88.7105 26.9646 90.3004 26.8787 90.4955 26.8693C92.2119 26.8092 89.2477 26.9359 88.1155 26.9609C88.061 26.9538 87.9973 26.9472 87.9698 26.9448C87.7935 26.9252 86.7706 26.9928 86.4192 26.9785C86.3046 26.9715 86.5272 26.8712 86.1113 26.8616C83.4472 26.7771 85.351 27.1857 83.8336 26.4612C86.2544 26.6487 85.7122 26.8086 88.2931 26.8553C91.0617 26.9779 87.3544 26.7082 90.7433 26.9888C90.3344 26.9532 89.9755 26.9198 89.563 26.8802C89.4135 26.8656 89.2571 26.85 89.0887 26.8326C90.5648 26.9384 87.7992 26.335 87.2807 25.8834C86.7467 25.4806 86.8956 24.5923 87.2514 24.4786C87.6248 24.3288 88.0179 24.8455 88.7903 25.9418C89.0801 25.9214 89.243 25.8934 89.4632 25.9654C85.5453 22.7562 87.0891 23.9621 87.1663 22.8557C87.1677 22.8399 87.163 22.8178 87.1537 22.7907C86.9311 22.4763 85.8319 21.0625 87.4196 22.968C85.7868 20.9412 86.9078 22.0607 86.7232 21.8058C85.7546 20.2282 83.8207 18.5691 85.5187 20.8423C85.6893 21.1225 85.9184 21.4453 86.213 21.8159C84.8179 20.6593 86.4015 22.4148 85.9547 22.4227C85.2731 22.4949 84.6949 22.4366 85.7128 24.1271C84.3897 23.9799 84.6546 22.8913 84.7928 22.1678C84.853 21.7998 84.8586 21.4915 84.6071 21.2204C84.3439 20.9742 83.8736 20.6498 82.6661 20.8666C82.1226 20.9836 81.3761 21.379 80.55 22.3791C79.7186 23.2874 78.979 25.2448 78.6651 25.8465C77.6899 27.0108 77.0844 28.2311 76.6934 29.1984C76.3364 30.2487 76.0165 30.7935 76.342 32.3343C77.0374 34.2387 77.826 35.423 78.3257 36.1574C80.3246 38.9156 81.6169 39.7581 82.5084 40.5209C83.4057 41.2272 83.9858 41.6222 84.4755 41.9397C85.4277 42.5502 86.0342 42.8036 86.6186 42.8567C86.7664 42.8802 87.38 43.225 87.6899 40.3911C87.7305 39.9844 87.7428 38.8888 88.2541 36.7105C88.0094 38.0065 87.9549 38.8652 87.9429 39.0037C87.6372 42.1449 87.45 42.8998 87.7616 42.9728ZM89.0791 17.7054C89.4562 17.7675 89.752 17.8175 89.9867 17.8336C90.2299 17.8685 90.0972 15.9303 90.4291 12.1782C90.3909 12.1701 90.3532 12.1622 90.3158 12.1545C89.9569 12.1273 89.6064 12.1139 89.2542 12.1132C89.4293 12.3798 89.5955 12.6487 89.752 12.9212C89.7527 12.9212 89.7534 12.9212 89.7541 12.9212C89.4195 14.5071 89.1925 16.106 89.0791 17.7054ZM97.2599 35.5499C97.544 36.0492 97.819 36.5561 98.0635 37.0682C97.8656 37.119 97.6711 37.1631 97.4733 37.2052C96.33 36.2858 91.9621 40.8807 91.4329 39.5125C90.3314 39.5278 88.923 39.4655 87.1485 38.932C87.646 38.6612 88.0771 38.3484 88.4667 38.0198C89.6113 38.1971 90.5303 38.1751 91.2877 38.1028C91.7567 39.3156 95.6284 35.2428 96.6417 36.0577C96.8639 35.9049 97.0729 35.7402 97.2599 35.5499ZM96.8043 26.8175C95.2335 26.9862 98.04 26.9954 96.7529 27.2291C98.8219 27.2921 100.847 27.32 102.898 27.3225C102.6 26.9513 101.813 26.8962 102.311 26.5564C101.648 26.6133 100.979 26.6655 100.311 26.7104C100.454 26.7545 100.617 26.8043 100.744 26.8525C98.8838 26.9107 98.6 26.563 96.8 26.817C96.8015 26.8171 96.8029 26.8173 96.8043 26.8175ZM95.6578 31.8347C95.4616 31.8449 95.0191 31.8255 94.7356 31.8261C94.5503 31.7455 94.4621 31.7644 94.7125 32.1144C95.4889 33.2107 95.8298 33.3621 96.0852 33.4344C96.521 33.3537 96.8838 33.1764 96.8988 34.404C96.957 34.5417 97.0188 34.7012 97.0832 34.8872C97.3442 35.2006 97.5932 35.5132 97.8481 35.8263C97.9263 35.8232 98.0032 35.8179 98.079 35.8105C98.3974 35.6577 98.7477 35.4516 99.1378 35.1596C97.9583 34.0656 96.8339 32.9441 95.6578 31.8347ZM91.5017 17.7022C91.5212 17.9305 92.2269 16.6775 92.4538 14.8454C92.4991 14.3042 91.782 16.8478 91.7446 16.7256C91.7117 16.6449 92.0164 15.2322 91.8284 15.7382C91.7243 16.3661 91.6065 17.0619 91.5026 17.698C91.5023 17.6994 91.502 17.7008 91.5017 17.7022ZM90.0163 25.9721C90.0831 25.7224 90.1671 25.4061 90.2484 25.1429C90.5158 23.5194 90.2764 24.5505 90.6533 22.2666C90.6959 22.0958 90.7393 21.9261 90.7841 21.7558C90.7098 22.2565 90.6331 22.7574 90.5544 23.2575C90.8146 22.0266 90.9033 21.4075 90.9277 21.7818C91.5352 18.3358 91.7823 16.4708 91.008 19.9305C91.3589 18.0644 92.298 11.9495 91.4676 16.294C91.3208 17.1017 91.3317 17.6583 91.3113 17.7875C91.0673 19.3935 90.8626 20.4106 90.6367 21.9285C90.5334 22.6148 90.5701 22.61 90.4188 23.5616C90.3431 24.0255 90.1068 25.3458 90.0163 25.9721ZM91.1769 17.8165C91.35 16.8475 91.5973 14.5236 91.4449 14.9803C91.2248 15.6919 91.106 17.917 91.1769 17.8165ZM97.2603 35.5468C97.2601 35.5478 97.26 35.5488 97.2599 35.5499C97.2588 35.548 97.2577 35.5461 97.2567 35.5442C97.2579 35.5451 97.2591 35.5459 97.2603 35.5468ZM97.7754 30.8781C98.195 31.8699 97.5657 32.4772 98.6488 33.2465C98.2603 33.3171 97.8911 33.3489 97.5456 33.3369C97.8401 33.6074 98.137 33.8765 98.429 34.1437C99.1327 33.7474 99.9979 33.0756 100.826 31.9753C99.7917 31.6539 98.7787 31.2732 97.7754 30.8781ZM94.5359 33.0259C94.299 33.0211 95.4297 34.4429 95.8719 35.1977C96.3031 35.9607 95.7171 35.4902 96.4041 36.5384C96.5756 36.4893 96.7507 36.4339 96.9166 36.375C96.1115 35.2735 95.3128 34.1369 94.5356 33.0261C94.5357 33.026 94.5358 33.0259 94.5359 33.0259ZM79.958 29.3847C80.0564 28.842 80.7436 28.6275 80.5872 28.2702C80.4829 27.9234 80.1257 27.4759 79.5747 26.2922C79.5747 26.2949 79.5747 26.2977 79.5748 26.3004C79.3357 27.0662 79.2084 27.8958 79.1656 28.6163C78.7262 30.1097 78.9684 31.5715 80.1336 31.8187C81.0608 30.5302 79.7686 30.6551 79.958 29.3847ZM100.846 26.0599C99.7511 26.0791 98.8614 26.4513 99.8786 26.4862C101.53 26.5748 102.515 26.0588 100.846 26.0599ZM89.8259 26.7375C90.9067 23.5478 92.267 20.0163 91.8355 21.6027C91.7853 21.7364 91.3235 22.7052 91.1001 23.3238C91.0768 23.3842 91.129 23.3187 90.9522 23.7525C90.7737 24.1868 90.3531 25.1922 90.1724 25.6123C89.8447 26.3413 90.4336 24.9827 89.991 25.9336C89.9265 26.0587 89.3402 27.3934 89.3238 27.4467C89.0055 28.2704 89.7944 26.5354 89.7952 26.522C89.8356 26.468 89.2699 27.8504 89.1464 28.1792C88.917 28.7988 89.1937 28.1982 89.1762 28.2439C88.7674 29.4905 88.7548 29.0834 88.5236 29.57C87.8878 30.8785 87.4491 32.1633 86.8663 32.8015C86.8208 32.8659 86.5268 32.6326 86.2363 34.3406C83.8127 37.056 85.9537 36.4004 86.375 35.7127C86.5712 35.4065 86.9715 34.0357 87.2382 33.4515C87.837 32.1115 88.0284 31.9047 88.7004 29.9512C90.1276 25.8494 89.1225 28.512 89.3251 27.8067C89.6756 26.9311 90.014 26.0758 90.3503 25.2165C89.8851 26.3676 89.7354 26.9746 89.8231 26.7455C89.824 26.7428 89.825 26.7401 89.8259 26.7375ZM86.7295 30.7076C87.3301 29.534 85.7876 31.8003 86.5549 30.4227C84.9754 32.3186 85.3569 32.39 85.3171 32.5286C85.119 33.1432 83.6779 35.3997 84.3196 34.8302C85.0884 33.4432 85.9034 32.0645 86.7295 30.7076ZM87.4128 32.3355C86.7736 33.5733 86.9822 33.634 86.8962 33.8848C85.9543 36.5441 85.4482 35.7379 87.4128 32.3355ZM90.8429 23.1928C90.8491 23.2904 91.1211 21.9893 91.2376 21.6131C91.3595 21.2347 91.198 22.3657 91.3927 21.5622C91.6085 20.7613 91.823 18.6025 92.2183 18.219C92.3198 17.7649 92.4063 17.4288 92.5016 17.0193C92.4125 16.9847 92.3292 16.9444 92.2471 16.9136C92.0027 18.2309 91.7288 19.6134 91.4632 20.8804C91.189 21.9105 91.4807 20.5752 91.4774 20.5744C91.4771 20.5758 91.4768 20.5772 91.4765 20.5786C91.3815 20.667 90.8282 22.9759 90.8429 23.1928ZM85.0949 20.2793C86.9914 23.0129 85.0907 19.8056 85.0579 19.3404C84.99 18.8972 85.8106 19.8477 85.0189 18.651C84.2319 17.9589 84.848 19.9945 85.0974 20.2828C85.0965 20.2816 85.0957 20.2805 85.0949 20.2793ZM85.9237 30.0957C85.24 30.5629 84.6292 31.1793 85.1272 30.2756C84.553 30.8389 83.9692 31.4175 83.4098 31.9785C83.6303 32.2263 85.2268 30.5212 84.7825 31.388C84.7127 31.5335 83.388 32.8524 83.9591 32.5564C84.5634 31.7629 85.254 30.8984 85.9237 30.0957ZM82.7386 30.9899C83.2015 31.3982 88.2933 27.3376 85.718 28.8032C85.3344 29.0216 82.4211 30.7045 82.7386 30.9899ZM90.2043 23.2501C90.2827 23.4494 90.3057 22.3931 90.3868 21.3957C90.7883 20.6406 90.3373 21.6643 90.6707 18.3553C90.5098 19.2904 90.2183 21.4378 90.2249 22.022C90.2267 22.2646 90.328 21.2793 90.3292 21.2835C90.3603 21.5338 90.1613 23.1419 90.2043 23.2501ZM87.0407 30.7121C87.0073 30.7493 86.4487 31.7243 86.3036 31.8992C86.157 32.0714 86.4993 31.359 86.1304 31.9414C85.7533 32.5244 85.6377 33.0839 85.9406 32.6748C86.2452 32.2615 87.3255 30.3778 87.0407 30.7121ZM87.9724 27.9893C87.3503 28.5205 84.8309 31.8137 84.918 31.8588C85.3413 31.9205 87.0585 28.9375 87.9724 27.9893ZM89.2987 30.2223C89.5239 28.1318 89.9132 24.4983 90.007 22.3093C89.9562 22.7512 89.9059 23.194 89.8586 23.6322C90.1351 20.9434 90.5028 18.2936 90.0491 20.6191C90.1232 21.2635 89.9555 21.9782 89.9461 22.1303C89.5372 27.0779 89.8331 24.7897 89.2987 30.2223C89.2987 30.2223 89.2987 30.2223 89.2987 30.2223ZM86.8286 31.9472C86.9774 32.0073 87.6223 31.3596 88.4074 29.339C87.9191 30.2283 87.3935 31.0996 86.8286 31.9472ZM87.0494 27.712C85.8617 28.0644 85.8566 27.9805 85.918 27.8995C87.6584 27.4357 87.8439 27.334 88.2672 27.2105C88.903 27.0198 88.8532 27.0435 88.9691 27.0075C90.6028 26.5008 90.866 26.4516 90.81 26.4102C91.3803 26.2372 91.9596 26.0774 92.5343 25.9336C92.5835 25.8292 93.642 25.4745 94.8878 24.9079C91.7808 26.1146 93.7015 25.2861 92.1222 25.8015C91.3548 26.1173 87.6723 27.573 87.0493 27.7117C87.0493 27.7118 87.0494 27.7119 87.0494 27.712ZM89.2388 30.8883C89.3056 30.2919 89.3993 29.4855 89.4821 28.8047C89.4934 28.7402 89.504 28.6837 89.5159 28.6194C89.4522 29.1461 89.3852 29.6971 89.3233 30.2035C89.3058 30.3569 89.3961 29.6237 89.4055 29.555C89.4051 29.5578 89.4048 29.5606 89.4044 29.5635C89.5384 28.5932 89.553 28.7064 89.3147 30.3295C89.5529 28.7213 89.7911 27.1132 90.0293 25.5051C89.9971 25.657 89.9663 25.8053 89.9366 25.9536C89.809 26.8177 89.684 27.6829 89.5617 28.5478C89.6239 28.07 89.6824 27.5952 89.7383 27.1166C89.6909 27.4272 89.6422 27.7541 89.5998 28.0572C90.1352 23.5448 89.8309 26.6179 90.0866 24.7493C90.2578 23.5486 90.106 23.5824 89.9952 24.4125C89.9801 24.5341 89.6053 27.8968 89.7782 26.1422C89.8123 25.8667 90.6004 18.589 89.9118 24.4764C89.8198 25.3122 89.3617 29.8367 89.2388 30.8883ZM88.7536 33.1999C89.6617 28.6063 88.5975 33.4428 89.4148 29.6768C89.8494 27.5698 89.8647 27.6016 90.2253 25.7258C90.2567 25.5575 90.3958 24.9827 90.4101 24.9089C90.5938 23.8712 90.4417 24.4105 90.8059 22.5307C90.7748 22.6285 90.7471 22.7157 90.7171 22.8138C90.4205 24.594 90.1297 25.773 89.8557 27.271C89.73 27.9491 89.6991 28.1597 89.589 28.7532C89.5498 28.9701 89.6207 28.5358 89.5117 29.1582C89.2667 30.566 88.9346 32.4685 88.7168 33.4995C88.7165 33.5009 88.7162 33.5023 88.716 33.5037C88.7267 33.4102 88.7415 33.2973 88.7536 33.1999ZM91.5748 28.51C89.8057 26.6174 89.1125 26.2635 88.3572 25.2308C88.0029 24.864 87.6457 24.506 87.2782 24.152C87.2636 24.2285 87.2517 24.3041 87.2319 24.3863C89.9825 27.0332 89.9548 26.6872 89.5112 26.3994C89.2993 26.245 89.0013 26.1 89.0661 26.1339C89.1255 26.1752 89.5841 26.3363 90.689 27.1237C91.1681 27.4715 90.4519 27.3494 91.946 27.9934C91.9469 27.9947 91.9478 27.9959 91.9487 27.9972C91.2533 28.1316 90.6693 27.3677 91.5748 28.51ZM89.9647 27.4651C88.0429 22.3551 88.3324 24.886 89.2666 26.0359C89.3005 26.1631 88.9346 25.0399 89.9647 27.4651ZM93.9617 22.1653C94.2353 22.3394 91.924 24.1642 91.0885 24.8115C90.2554 25.4687 91.0561 24.7545 90.9191 24.8518C90.495 25.2041 90.2349 25.4597 89.6608 25.9506C89.4604 26.0958 88.7594 26.879 88.862 26.8014C89.3571 26.3023 91.0315 24.5485 91.2298 24.3542C91.8314 23.6701 90.9437 24.5675 91.8 23.6039C93.6118 21.5333 91.7833 23.7737 91.7451 23.8035C91.6918 23.9339 92.7791 22.831 93.0543 22.6686C93.3326 22.5109 92.983 22.9142 93.1115 22.8937C93.1556 22.8883 93.946 22.1624 93.9617 22.1653ZM89.2564 26.2016C90.2202 25.648 91.1931 25.0059 91.9831 24.7461C92.765 24.4663 93.3319 24.5844 93.108 24.7381C92.4442 25.179 91.1537 25.4171 90.2452 25.763C89.3273 26.0868 88.7927 26.4626 89.2564 26.2016ZM89.9508 26.2364C89.6845 27.827 89.5192 29.1222 89.629 28.4826C89.7514 27.8236 90.0547 25.6907 89.9508 26.2364ZM89.2953 30.2134C89.3521 29.7144 89.6725 26.0953 89.6292 26.149C89.4177 28.5272 89.4692 28.0566 89.4709 28.1551C89.4718 28.2545 89.255 30.6025 89.2953 30.2134ZM91.3495 23.4001C91.4052 23.3886 90.3925 25.0831 89.9492 25.7732C89.9206 25.8277 90.1272 25.5459 90.3008 25.2218C90.6558 24.569 91.2726 23.4783 91.3495 23.4001ZM89.0604 33.7321C89.1715 31.6697 89.1794 31.698 89.3312 29.2778C89.3312 29.2778 89.3312 29.2778 89.3311 29.2778C89.4022 28.5382 89.0408 33.4862 89.0422 33.3798C89.0586 33.0076 89.3362 29.4875 89.4331 28.332C89.3263 29.417 89.5106 27.0433 89.4886 26.8904C89.4852 26.869 89.435 27.4508 89.3917 28.1043C89.3967 28.4659 89.4143 28.8489 89.4169 29.1637C89.4258 29.8334 89.326 31.5126 89.1236 32.7319C89.0993 33.1291 89.077 33.479 89.0604 33.7321ZM91.4309 22.8621C91.8373 22.1792 90.329 25.1682 90.1109 25.6524C90.0207 25.8988 91.2046 23.2881 91.4309 22.8621ZM87.5817 23.274C87.836 23.589 88.0912 23.9021 88.3475 24.2133C88.6351 24.5868 88.9279 24.9547 89.2261 25.3162C89.268 25.3457 89.3093 25.3762 89.3498 25.4078C89.4584 25.5305 89.566 25.6567 89.6708 25.7849C89.5016 25.5768 89.3307 25.3751 89.1559 25.1768C89.1489 25.1706 89.1418 25.1644 89.1347 25.1583C89.1329 25.1539 89.131 25.1494 89.129 25.1446C88.9181 24.88 87.9678 23.6441 87.5818 23.2739C87.5818 23.2739 87.5818 23.2739 87.5817 23.274ZM90.5695 21.7674C90.6785 20.9291 90.4089 23.5323 90.3778 23.7343C90.2028 25.2453 90.4389 22.932 90.5695 21.7674ZM88.6757 34.0823C88.5619 34.4342 89.3377 30.2501 89.3726 29.9601C89.2337 30.762 88.7337 33.8809 88.6757 34.0823ZM88.9735 22.0813C89.0442 22.4406 89.1188 22.7991 89.1965 23.1575C89.1137 22.6536 89.0499 22.3172 88.9735 22.0813ZM93.2806 20.1764C93.4613 19.9031 93.7652 19.7737 93.569 20.1286C93.1385 20.8614 91.7922 22.7884 92.1439 22.1574C92.1845 22.0912 93.0994 20.4487 93.2809 20.1765C93.2808 20.1765 93.2807 20.1764 93.2806 20.1764ZM86.6866 21.9031C86.7112 21.9355 86.735 21.9662 86.7572 21.9943C86.7339 21.9643 86.71 21.9332 86.6866 21.9031ZM98.9543 22.1281C98.8906 22.1484 98.8296 22.173 98.7741 22.2026C98.831 22.1782 98.8926 22.1562 98.9543 22.1281ZM97.2145 18.7382C100.309 16.104 99.1421 18.0416 97.3426 19.0333C97.25 19.087 97.2539 18.7668 97.2145 18.7382Z" fill="#D1D5DB"/>
<defs>
<linearGradient id="paint0_linear_2_66" x1="0" y1="0" x2="180" y2="0" gradientUnits="userSpaceOnUse">
<stop stop-opacity="0"/>
<stop offset="0.5" stop-color="white" stop-opacity="0.2"/>
<stop offset="1" stop-opacity="0"/>
</linearGradient>
</defs>
</svg>
