<svg width="40" height="40" viewBox="0 0 40 40" fill="none" xmlns="http://www.w3.org/2000/svg">
<path d="M0 8C0 3.58172 3.58172 0 8 0H32C36.4183 0 40 3.58172 40 8V32C40 36.4183 36.4183 40 32 40H8C3.58172 40 0 36.4183 0 32V8Z" fill="#1F2937"/>
<path d="M24.8636 15.5866C23.9309 15.16 22.967 14.8622 21.9721 14.6933C21.8477 14.9066 21.7278 15.1555 21.6123 15.44C20.5374 15.2889 19.467 15.2889 18.401 15.44C18.3033 15.2089 18.1834 14.96 18.0412 14.6933C17.0374 14.8622 16.0691 15.16 15.1364 15.5866C14.2658 16.8844 13.6617 18.2222 13.3242 19.6C13.0221 20.8444 12.9333 22.1555 13.0577 23.5333C14.1503 24.3244 15.3318 24.9155 16.6021 25.3066C16.8953 24.9155 17.1485 24.5066 17.3617 24.08C16.953 23.9289 16.5533 23.7378 16.1624 23.5066C16.2601 23.4355 16.3578 23.36 16.4556 23.28C17.6104 23.8133 18.7941 24.08 20.0067 24.08C21.2192 24.08 22.3941 23.8133 23.5311 23.28L23.8243 23.5066C23.4423 23.7378 23.0425 23.9289 22.625 24.08C22.8471 24.5066 23.1003 24.9155 23.3846 25.3066C24.6638 24.9155 25.8452 24.3244 26.929 23.5333C27.08 22.0578 26.9734 20.6444 26.6092 19.2933C26.2628 18.0133 25.6809 16.7778 24.8636 15.5866ZM17.6815 21.92C17.4505 21.92 17.2395 21.8578 17.0485 21.7333C16.8575 21.6089 16.7065 21.44 16.5955 21.2266C16.4844 21.0133 16.4289 20.78 16.4289 20.5266C16.4289 20.2733 16.4844 20.0378 16.5955 19.82C16.7065 19.6022 16.8575 19.4311 17.0485 19.3066C17.2395 19.1822 17.4505 19.12 17.6815 19.12C17.9124 19.12 18.1256 19.1844 18.3211 19.3133C18.5165 19.4422 18.6697 19.6133 18.7808 19.8266C18.8918 20.04 18.9451 20.2733 18.9407 20.5266C18.9362 20.78 18.8785 21.0133 18.7674 21.2266C18.6564 21.44 18.5054 21.6089 18.3144 21.7333C18.1234 21.8578 17.9124 21.92 17.6815 21.92ZM22.3319 21.92C22.1009 21.92 21.8899 21.8578 21.6989 21.7333C21.5079 21.6089 21.3547 21.44 21.2392 21.2266C21.1237 21.0133 21.066 20.78 21.066 20.5266C21.066 20.2733 21.1215 20.0378 21.2326 19.82C21.3436 19.6022 21.4968 19.4311 21.6923 19.3066C21.8877 19.1822 22.1009 19.12 22.3319 19.12C22.5628 19.12 22.7738 19.1844 22.9648 19.3133C23.1558 19.4422 23.309 19.6133 23.4245 19.8266C23.54 20.04 23.5955 20.2733 23.5911 20.5266C23.5866 20.78 23.5289 21.0133 23.4179 21.2266C23.3068 21.44 23.1558 21.6089 22.9648 21.7333C22.7738 21.8578 22.5628 21.92 22.3319 21.92Z" fill="#9CA3AF"/>
</svg>
