<svg width="40" height="40" viewBox="0 0 40 40" fill="none" xmlns="http://www.w3.org/2000/svg">
<path d="M0 8C0 3.58172 3.58172 0 8 0H32C36.4183 0 40 3.58172 40 8V32C40 36.4183 36.4183 40 32 40H8C3.58172 40 0 36.4183 0 32V8Z" fill="#1F2937"/>
<path d="M21.1726 21H22.8382L23.5045 18.3333H21.1726V17C21.1726 16.6977 21.1859 16.48 21.2126 16.3466C21.2659 16.1333 21.3814 15.9688 21.559 15.8533C21.7722 15.7288 22.0876 15.6666 22.5051 15.6666H23.5045V13.4266C23.3535 13.4088 23.1136 13.3911 22.7849 13.3733C22.3763 13.3466 21.981 13.3333 21.599 13.3333C20.9861 13.3333 20.4464 13.4555 19.98 13.7C19.5136 13.9444 19.1561 14.2933 18.9074 14.7466C18.6409 15.2355 18.5076 15.8088 18.5076 16.4666V18.3333H16.5089V21H18.5076V26.6666H21.1726V21Z" fill="#9CA3AF"/>
</svg>
