<svg width="19" height="18" viewBox="0 0 19 18" fill="none" xmlns="http://www.w3.org/2000/svg">
<path d="M13.125 3C13.935 3 14.69 3.205 15.39 3.615C16.07 4.015 16.61 4.555 17.01 5.235C17.42 5.935 17.625 6.69 17.625 7.5V10.5C17.625 11.31 17.42 12.065 17.01 12.765C16.61 13.445 16.07 13.985 15.39 14.385C14.69 14.795 13.935 15 13.125 15H5.625C4.815 15 4.06 14.795 3.36 14.385C2.68 13.985 2.14 13.445 1.74 12.765C1.33 12.065 1.125 11.31 1.125 10.5V7.5C1.125 6.69 1.33 5.935 1.74 5.235C2.14 4.555 2.68 4.015 3.36 3.615C4.06 3.205 4.815 3 5.625 3H13.125ZM13.125 4.5H5.625C5.095 4.5 4.6075 4.6275 4.1625 4.8825C3.7175 5.1375 3.3575 5.4825 3.0825 5.9175C2.8075 6.3525 2.655 6.83 2.625 7.35V10.5C2.625 11.03 2.7525 11.5175 3.0075 11.9625C3.2625 12.4075 3.6075 12.7675 4.0425 13.0425C4.4775 13.3175 4.955 13.47 5.475 13.5H13.125C13.655 13.5 14.1425 13.3725 14.5875 13.1175C15.0325 12.8625 15.3925 12.5175 15.6675 12.0825C15.9425 11.6475 16.095 11.17 16.125 10.65V7.5C16.125 6.97 15.9975 6.4825 15.7425 6.0375C15.4875 5.5925 15.1425 5.2325 14.7075 4.9575C14.2725 4.6825 13.795 4.53 13.275 4.5H13.125ZM7.875 6.75V8.25H9.375V9.75H7.875V11.25H6.375V9.75H4.875V8.25H6.375V6.75H7.875ZM13.875 9.75V11.25H12.375V9.75H13.875ZM12.375 6.75V8.25H10.875V6.75H12.375Z" fill="white"/>
</svg>
