<svg width="40" height="40" viewBox="0 0 40 40" fill="none" xmlns="http://www.w3.org/2000/svg">
<path d="M0 8C0 3.58172 3.58172 0 8 0H32C36.4183 0 40 3.58172 40 8V32C40 36.4183 36.4183 40 32 40H8C3.58172 40 0 36.4183 0 32V8Z" fill="#1F2937"/>
<path d="M20.6796 13.3333C21.3547 13.3333 21.8433 13.3377 22.1453 13.3466L22.7449 13.3733C23.3668 13.4 23.9042 13.5022 24.3573 13.68C24.8103 13.8577 25.2056 14.1155 25.5432 14.4533C25.8808 14.7911 26.1384 15.1866 26.316 15.64C26.4937 16.0933 26.5959 16.6311 26.6225 17.2533L26.6492 17.8533C26.6581 18.1644 26.6625 18.6533 26.6625 19.32V20.68C26.6625 21.3555 26.6581 21.8444 26.6492 22.1466L26.6225 22.7466C26.5959 23.3688 26.4937 23.9066 26.316 24.36C26.1384 24.8133 25.8808 25.2088 25.5432 25.5466C25.2056 25.8844 24.8103 26.1422 24.3573 26.32C23.9042 26.4977 23.3668 26.6 22.7449 26.6266L22.1453 26.6533C21.8344 26.6622 21.3458 26.6666 20.6796 26.6666H19.3204C18.6453 26.6666 18.1567 26.6622 17.8547 26.6533L17.255 26.6266C16.6332 26.6 16.0958 26.4977 15.6427 26.32C15.1897 26.1422 14.7944 25.8844 14.4568 25.5466C14.1192 25.2088 13.8616 24.8133 13.6839 24.36C13.5063 23.9066 13.4041 23.3688 13.3775 22.7466L13.3508 22.1466C13.3419 21.8355 13.3375 21.3466 13.3375 20.68V19.32C13.3375 18.6444 13.3419 18.1555 13.3508 17.8533L13.3775 17.2533C13.4041 16.6311 13.5063 16.0933 13.6839 15.64C13.8616 15.1866 14.1192 14.7911 14.4568 14.4533C14.7944 14.1155 15.1897 13.8577 15.6427 13.68C16.0958 13.5022 16.6332 13.4 17.255 13.3733L17.8547 13.3466C18.1656 13.3377 18.6542 13.3333 19.3204 13.3333H20.6796ZM20 16.6666C19.3959 16.6666 18.8385 16.8155 18.3277 17.1133C17.8169 17.4111 17.4127 17.8155 17.1151 18.3266C16.8175 18.8377 16.6687 19.3955 16.6687 20C16.6687 20.6044 16.8175 21.1622 17.1151 21.6733C17.4127 22.1844 17.8169 22.5888 18.3277 22.8866C18.8385 23.1844 19.3959 23.3333 20 23.3333C20.6041 23.3333 21.1615 23.1844 21.6723 22.8866C22.1831 22.5888 22.5873 22.1844 22.8849 21.6733C23.1824 21.1622 23.3312 20.6044 23.3312 20C23.3312 19.3955 23.1824 18.8377 22.8849 18.3266C22.5873 17.8155 22.1831 17.4111 21.6723 17.1133C21.1615 16.8155 20.6041 16.6666 20 16.6666ZM20 18C20.3642 18 20.6996 18.0888 21.006 18.2666C21.3125 18.4444 21.5546 18.6866 21.7322 18.9933C21.9099 19.3 21.9987 19.6355 21.9987 20C21.9987 20.3644 21.9099 20.7 21.7322 21.0066C21.5546 21.3133 21.3125 21.5555 21.006 21.7333C20.6996 21.9111 20.3642 22 20 22C19.6358 22 19.3004 21.9111 18.994 21.7333C18.6875 21.5555 18.4454 21.3133 18.2677 21.0066C18.0901 20.7 18.0012 20.3644 18.0012 20C18.0012 19.6355 18.0901 19.3 18.2677 18.9933C18.4454 18.6866 18.6875 18.4444 18.994 18.2666C19.3004 18.0888 19.6358 18 20 18ZM23.4911 15.6666C23.2691 15.6666 23.0758 15.7488 22.9115 15.9133C22.7472 16.0777 22.665 16.2733 22.665 16.5C22.665 16.7266 22.7472 16.9222 22.9115 17.0866C23.0758 17.2511 23.2713 17.3333 23.4978 17.3333C23.7243 17.3333 23.9198 17.2511 24.0841 17.0866C24.2484 16.9222 24.3306 16.7266 24.3306 16.5C24.3306 16.2733 24.2484 16.0777 24.0841 15.9133C23.9198 15.7488 23.7221 15.6666 23.4911 15.6666Z" fill="#9CA3AF"/>
</svg>
