<svg width="40" height="40" viewBox="0 0 40 40" fill="none" xmlns="http://www.w3.org/2000/svg">
<path d="M0 8C0 3.58172 3.58172 0 8 0H32C36.4183 0 40 3.58172 40 8V32C40 36.4183 36.4183 40 32 40H8C3.58172 40 0 36.4183 0 32V8Z" fill="#1F2937"/>
<path d="M26.7958 15.7867C26.2805 16.0089 25.7475 16.1556 25.1968 16.2267C25.481 16.0489 25.7298 15.8267 25.943 15.56C26.1562 15.2934 26.3116 15 26.4093 14.68C25.8586 15.0089 25.2723 15.2356 24.6504 15.36C24.3839 15.0756 24.073 14.8578 23.7177 14.7067C23.3623 14.5556 22.9937 14.48 22.6117 14.48C22.1054 14.48 21.639 14.6045 21.2126 14.8534C20.7862 15.1022 20.4486 15.44 20.1999 15.8667C19.9511 16.2934 19.8268 16.76 19.8268 17.2667C19.8268 17.48 19.849 17.6934 19.8934 17.9067C18.7563 17.8445 17.6815 17.5556 16.6688 17.04C15.6916 16.5334 14.8521 15.8489 14.1503 14.9867C13.9016 15.4222 13.7772 15.8889 13.7772 16.3867C13.7772 16.8667 13.8883 17.3111 14.1104 17.72C14.3324 18.1289 14.6345 18.4578 15.0165 18.7067C14.5723 18.6978 14.1503 18.5822 13.7506 18.36V18.4C13.7506 18.8445 13.8483 19.2578 14.0437 19.64C14.2392 20.0222 14.5079 20.3445 14.8499 20.6067C15.1919 20.8689 15.5717 21.0445 15.9892 21.1334C15.7493 21.1956 15.505 21.2267 15.2563 21.2267C15.0786 21.2267 14.9054 21.2089 14.7366 21.1734C14.9143 21.7334 15.2408 22.1934 15.716 22.5534C16.1913 22.9134 16.7309 23.1022 17.335 23.12C16.8375 23.5022 16.2934 23.7956 15.7027 24C15.112 24.2045 14.5012 24.3067 13.8705 24.3067C13.6484 24.3067 13.4263 24.2934 13.2043 24.2667C13.8439 24.6756 14.5279 24.9867 15.2563 25.2C15.9847 25.4134 16.7265 25.52 17.4816 25.52C18.7075 25.52 19.8401 25.28 20.8795 24.8C21.83 24.3556 22.6606 23.7334 23.3712 22.9334C24.0286 22.1867 24.5349 21.3378 24.8903 20.3867C25.2367 19.4622 25.41 18.5289 25.41 17.5867C25.41 17.4711 25.4055 17.3511 25.3966 17.2267C25.9474 16.8267 26.4138 16.3467 26.7958 15.7867Z" fill="#9CA3AF"/>
</svg>
